<?xml version="1.0" encoding="utf-8" ?>
<svg xmlns="http://www.w3.org/2000/svg" xmlns:xlink="http://www.w3.org/1999/xlink" width="124" height="128">
	<path transform="scale(0.242188 0.25)" d="M406.089 149.089L276.521 261.988C270.182 267.531 264.156 273.856 257.15 278.556L65.2824 112.77C69.6785 108.707 93.3717 88.0854 98.6458 87.067C101.228 87.0705 115.718 86.6432 117.067 87.2893C117.574 87.5322 118.438 88.5519 118.904 88.9628L232.479 187.783L257.292 209.914C267.945 199.477 279.821 190.084 291.07 180.285L395.151 89.1549C395.735 88.6411 396.738 87.5751 397.502 87.3714C399.586 86.8157 414.281 86.8415 415.516 87.7587L446.019 113.557C444.66 115.432 442.762 116.869 441.045 118.404L406.089 149.089Z"/>
	<path transform="scale(0.242188 0.25)" d="M290.56 318.185C288.425 318.195 279.719 318.709 278.433 317.75C278.696 316.724 279.414 316.11 280.158 315.407L480.367 141.611C481.465 140.666 485.695 137.845 486.176 137.262L486.486 346.569C486.482 356.165 487.234 366.326 485.501 375.77C480.567 402.647 457.843 422.116 430.556 422.203L85.8957 422.212C81.5887 422.211 77.0038 422.497 72.75 421.824C44.8931 417.422 26.2875 392.089 26.2692 364.636L26.272 136.863L150.001 241.767L232.379 313.635C233.722 314.929 234.888 316.152 235.657 317.871C232.206 318.388 228.475 318.154 224.984 318.157L161.675 318.075C156.228 317.807 144.303 305.272 139.893 301.48L84.3159 253.971C82.4518 252.423 79.9379 250.832 78.3513 249.07L78.221 346.703C78.2171 355.431 75.9011 367.919 87.6982 370.305C90.9977 370.973 95.1255 370.563 98.5108 370.565L414.739 370.56C418.02 370.551 424.612 371.374 427.485 369.438C436.799 363.163 435.07 357.116 435.075 346.881L435.162 249.08C434.774 249.696 428.707 254.405 427.413 255.578L360.984 313.375C355.912 317.572 356.196 318.185 349.788 318.188L290.56 318.185Z"/>
</svg>
